<svg width="457" height="457" viewBox="0 0 457 457" fill="none" xmlns="http://www.w3.org/2000/svg">
<g filter="url(#filter0_f_181_6)">
<path d="M126.25 128.75C180.505 128.75 224.643 172.065 225.969 226H126.25C71.9954 226 27.8575 182.685 26.5307 128.75H126.25ZM328.25 126.25C328.25 180.505 284.935 224.643 231 225.969V126.25C231 71.9954 274.315 27.8575 328.25 26.5307V126.25ZM330.75 328.25C276.495 328.25 232.357 284.935 231.031 231H330.75C385.005 231 429.143 274.315 430.469 328.25H330.75ZM128.75 330.75C128.75 276.495 172.065 232.357 226 231.031V330.75C226 385.005 182.685 429.143 128.75 430.469V330.75Z" stroke="#95B73C" stroke-width="5"/>
<path d="M158.101 154.566C119.812 116.276 119.23 54.5588 156.355 15.5573L226.732 85.9344C265.021 124.224 265.603 185.941 228.478 224.943L158.101 154.566ZM85.9344 230.268C124.224 191.979 185.941 191.397 224.943 228.522L154.566 298.899C116.276 337.188 54.5588 337.77 15.5573 300.645L85.9344 230.268ZM371.066 226.732C332.776 265.021 271.059 265.603 232.057 228.478L302.434 158.101C340.724 119.812 402.441 119.23 441.443 156.355L371.066 226.732ZM230.268 371.066C191.979 332.776 191.397 271.059 228.522 232.057L298.899 302.434C337.188 340.724 337.77 402.441 300.645 441.443L230.268 371.066Z" stroke="#95B73C" stroke-width="5"/>
</g>
<defs>
<filter id="filter0_f_181_6" x="0.3" y="0.3" width="456.4" height="456.4" filterUnits="userSpaceOnUse" color-interpolation-filters="sRGB">
<feFlood flood-opacity="0" result="BackgroundImageFix"/>
<feBlend mode="normal" in="SourceGraphic" in2="BackgroundImageFix" result="shape"/>
<feGaussianBlur stdDeviation="5.85" result="effect1_foregroundBlur_181_6"/>
</filter>
</defs>
</svg>
