<svg width="20" height="511" viewBox="0 0 20 511" fill="none" xmlns="http://www.w3.org/2000/svg">
<path fill-rule="evenodd" clip-rule="evenodd" d="M10 511L10 0L12 0L12 511H10Z" fill="#95B73C"/>
<path d="M20 10C20 15.5228 15.5228 20 10 20C4.47715 20 0 15.5228 0 10C0 4.47715 4.47715 0 10 0C15.5228 0 20 4.47715 20 10Z" fill="#95B73C"/>
<path d="M20 198C20 203.523 15.5228 208 10 208C4.47715 208 0 203.523 0 198C0 192.477 4.47715 188 10 188C15.5228 188 20 192.477 20 198Z" fill="#95B73C"/>
<path d="M20 392C20 397.523 15.5228 402 10 402C4.47715 402 0 397.523 0 392C0 386.477 4.47715 382 10 382C15.5228 382 20 386.477 20 392Z" fill="#95B73C"/>
</svg>
