<svg width="136" height="73" viewBox="0 0 136 73" fill="none" xmlns="http://www.w3.org/2000/svg">
<path d="M66.1163 46.7758C61.0042 46.7758 56.6124 45.8511 52.941 44.0016C49.2695 42.109 46.4579 39.4423 44.506 36.0013C42.5541 32.5173 41.5781 28.4096 41.5781 23.6783C41.5781 18.8179 42.5773 14.6242 44.5757 11.0972C46.6205 7.52715 49.4554 4.79587 53.0804 2.90333C56.7518 0.967775 61.0274 0 65.9071 0C69.7645 0 73.2732 0.645183 76.4334 1.93555C79.6401 3.22592 82.2427 5.16147 84.241 7.74221C85.2114 8.99541 85.9901 10.4109 86.5769 11.9887C87.6445 14.859 85.1502 17.549 82.0878 17.549H79.8555C77.507 17.549 75.611 15.8183 74.0908 14.0283C73.6927 13.5595 73.242 13.1416 72.7388 12.7746C71.2052 11.6133 69.0674 11.0326 66.3254 11.0326C63.3976 11.0326 61.0739 11.6348 59.3543 12.8392C57.6348 14.0435 56.4033 15.5704 55.6597 17.42C54.9626 19.2695 54.614 21.1835 54.614 23.1621C54.614 25.1407 54.9858 27.0977 55.7294 29.0333C56.5194 30.9688 57.7742 32.5818 59.4938 33.8722C61.2598 35.1195 63.6067 35.7432 66.5345 35.7432C68.3005 35.7432 69.8342 35.5066 71.1354 35.0335C72.4367 34.5173 73.5056 33.7861 74.3421 32.8399C75.9136 31.0793 77.8215 29.2914 80.1814 29.2914H82.7688C85.7863 29.2914 88.2705 31.915 87.1989 34.7358C86.598 36.3176 85.7747 37.7502 84.729 39.0336C82.5912 41.6144 79.8725 43.5499 76.5729 44.8403C73.3197 46.1307 69.8342 46.7758 66.1163 46.7758Z" fill="#95B73C"/>
<path d="M5.19732 46.7758C2.32692 46.7758 0 44.4489 0 41.5785V5.19732C0 2.32692 2.32692 0 5.19732 0H36.3812C39.2516 0 41.5785 2.32692 41.5785 5.19731V5.90203C41.5785 8.77243 39.2516 11.0993 36.3812 11.0993H17.6607C15.6904 11.0993 14.0931 12.6966 14.0931 14.667C14.0931 16.6374 15.6904 18.2346 17.6607 18.2346H31.5537C34.4241 18.2346 36.7511 20.5616 36.7511 23.432V23.6081C36.7511 26.4785 34.4241 28.8055 31.5537 28.8055H17.5616C15.646 28.8055 14.0931 30.3584 14.0931 32.274C14.0931 34.1896 15.646 35.7426 17.5616 35.7426H36.3812C39.2516 35.7426 41.5785 38.0695 41.5785 40.9399V41.5785C41.5785 44.4489 39.2516 46.7758 36.3812 46.7758H5.19732Z" fill="#95B73C"/>
<path fill-rule="evenodd" clip-rule="evenodd" d="M99.3236 43.8725C102.808 45.8081 106.872 46.7758 111.518 46.7758C116.249 46.7758 120.378 45.7866 123.905 43.808C127.475 41.7864 130.228 39.0121 132.163 35.4851C134.142 31.9151 135.131 27.8074 135.131 23.1621C135.131 18.4308 134.142 14.3446 132.163 10.9036C130.185 7.41962 127.454 4.73135 123.97 2.83881C120.486 0.946269 116.442 0 111.84 0C107.195 0 103.109 0.967775 99.5817 2.90333C96.0547 4.83888 93.3019 7.57016 91.3233 11.0972C89.3448 14.5812 88.3555 18.7103 88.3555 23.4847C88.3555 28.13 89.3017 32.2162 91.1943 35.7432C93.1298 39.2272 95.8396 41.937 99.3236 43.8725ZM108.998 11.466C110.539 10.0375 112.948 10.0375 114.488 11.466L123.476 19.7995C125.848 21.9979 124.65 25.7423 121.738 26.4549V32.4583C121.738 34.6248 119.949 36.3812 117.741 36.3812H105.749C103.542 36.3812 101.752 34.6248 101.752 32.4583V26.4558C98.8379 25.7453 97.6383 21.9988 100.01 19.7995L108.998 11.466Z" fill="#95B73C"/>
<path d="M99.0437 72.9999C97.44 72.9999 96.0342 72.6831 94.8265 72.0496C93.6385 71.3962 92.7079 70.4755 92.0348 69.2876C91.3814 68.0996 91.0547 66.684 91.0547 65.0406C91.0547 63.3973 91.3913 61.9618 92.0645 60.7343C92.7376 59.4869 93.6781 58.5167 94.8858 57.8238C96.0936 57.1308 97.4994 56.7843 99.1031 56.7843C100.251 56.7843 101.281 56.9625 102.192 57.3189C103.103 57.6753 103.885 58.1901 104.538 58.8632C105.191 59.5364 105.686 60.3482 106.023 61.2985C106.379 62.2489 106.558 63.3181 106.558 64.506C106.558 64.8426 106.538 65.1693 106.498 65.4861C106.49 65.6071 106.477 65.7313 106.459 65.8589C106.411 66.2001 106.106 66.4365 105.762 66.4365H97.0767C96.6359 66.4365 96.2857 66.8271 96.4657 67.2294C96.5075 67.3229 96.5551 67.415 96.6084 67.5056C96.8262 67.8422 97.1232 68.1095 97.4994 68.3075C97.8755 68.5055 98.3507 68.6045 98.9249 68.6045C99.4001 68.6045 99.806 68.555 100.143 68.456C100.499 68.3372 100.786 68.1887 101.004 68.0105C101.044 67.9773 101.082 67.9442 101.117 67.911C101.349 67.6913 101.635 67.4759 101.955 67.4759H105.638C106.111 67.4759 106.466 67.9141 106.317 68.3629C106.02 69.2581 105.585 70.0217 105.013 70.6537C104.281 71.4655 103.39 72.0595 102.34 72.4357C101.311 72.8118 100.212 72.9999 99.0437 72.9999ZM96.506 62.3028C96.3384 62.6771 96.6735 63.0211 97.0836 63.0211H100.885C101.295 63.0211 101.63 62.6771 101.463 62.3028C101.433 62.2358 101.398 62.1683 101.36 62.1004C101.202 61.7638 100.925 61.4866 100.529 61.2688C100.152 61.0511 99.6476 60.9422 99.014 60.9422C98.4002 60.9422 97.8953 61.0511 97.4994 61.2688C97.1034 61.4866 96.8064 61.7638 96.6084 62.1004C96.5702 62.1683 96.5361 62.2358 96.506 62.3028Z" fill="#546D33"/>
<path d="M66.4339 72.7624C66.0238 72.7624 65.6914 72.43 65.6914 72.0199V57.8535C65.6914 57.4435 66.0238 57.1111 66.4339 57.1111H69.8553C70.133 57.1111 70.377 57.2951 70.4533 57.5621C70.5949 58.0578 71.2576 58.1812 71.6528 57.85C71.8487 57.6858 72.0494 57.5484 72.2549 57.4378C72.7895 57.1606 73.2943 56.9923 73.7695 56.9329C74.2447 56.8537 74.6209 56.8141 74.8981 56.8141C75.7297 56.8141 76.5117 56.9626 77.2443 57.2596C77.6934 57.425 78.0966 57.6892 78.454 58.0522C78.8224 58.4263 79.4629 58.4658 79.8526 58.114C80.0852 57.9042 80.3245 57.7282 80.5706 57.5863C81.1052 57.2893 81.6298 57.0913 82.1446 56.9923C82.6792 56.8735 83.1841 56.8141 83.6593 56.8141C84.9264 56.8141 85.9461 57.0715 86.7183 57.5863C87.4904 58.101 88.0547 58.8237 88.4111 59.7543C88.7873 60.6848 88.9754 61.7837 88.9754 63.0509V72.0199C88.9754 72.43 88.643 72.7624 88.2329 72.7624H84.4611C84.0511 72.7624 83.7187 72.43 83.7187 72.0199V64.0309C83.7187 63.7933 83.6989 63.5359 83.6593 63.2588C83.6395 62.9816 83.5702 62.7242 83.4514 62.4866C83.3326 62.2292 83.1643 62.0213 82.9465 61.8629C82.7287 61.6847 82.4218 61.5956 82.0258 61.5956C81.61 61.5956 81.2735 61.6748 81.0161 61.8332C80.7587 61.9916 80.5508 62.1995 80.3924 62.4569C80.2538 62.7143 80.1548 63.0113 80.0954 63.3479C80.036 63.6646 80.0063 63.9913 80.0063 64.3279V72.0199C80.0063 72.43 79.6739 72.7624 79.2638 72.7624H75.4921C75.082 72.7624 74.7496 72.43 74.7496 72.0199V64.0012C74.7496 63.7834 74.7298 63.5458 74.6902 63.2885C74.6506 63.0113 74.5714 62.744 74.4526 62.4866C74.3338 62.2292 74.1457 62.0213 73.8883 61.8629C73.6507 61.6847 73.3141 61.5956 72.8786 61.5956C72.2648 61.5956 71.8193 61.7639 71.5421 62.1005C71.2649 62.4371 71.0966 62.8331 71.0372 63.2885C70.9778 63.7438 70.9481 64.1398 70.9481 64.4764V72.0199C70.9481 72.43 70.6157 72.7624 70.2056 72.7624H66.4339Z" fill="#546D33"/>
<path d="M55.4864 72.9999C53.942 72.9999 52.5462 72.693 51.2988 72.0793C50.0713 71.4655 49.0912 70.5646 48.3586 69.3767C47.6261 68.1689 47.2598 66.7038 47.2598 64.9812C47.2598 63.2191 47.6261 61.7341 48.3586 60.5264C49.111 59.2988 50.101 58.3682 51.3285 57.7347C52.5561 57.1011 53.9123 56.7843 55.3973 56.7843C56.9218 56.7843 58.288 57.111 59.4957 57.7644C60.7233 58.4177 61.6935 59.3582 62.4062 60.5858C63.1388 61.8133 63.5051 63.3082 63.5051 65.0703C63.5051 66.773 63.1586 68.2184 62.4656 69.4064C61.7727 70.5943 60.8223 71.4952 59.6145 72.109C58.4068 72.7029 57.0307 72.9999 55.4864 72.9999ZM55.3973 68.1293C56.1497 68.1293 56.7436 67.9709 57.1792 67.6541C57.6148 67.3373 57.9217 66.9413 58.0999 66.4662C58.2781 65.9712 58.3672 65.4861 58.3672 65.0109C58.3672 64.5357 58.2781 64.0407 58.0999 63.526C57.9217 63.0112 57.6148 62.5756 57.1792 62.2192C56.7634 61.8628 56.1695 61.6846 55.3973 61.6846C54.6449 61.6846 54.041 61.8628 53.5856 62.2192C53.1501 62.5756 52.8432 63.0112 52.665 63.526C52.4868 64.0209 52.3977 64.5159 52.3977 65.0109C52.3977 65.5059 52.4868 66.0009 52.665 66.4959C52.863 66.971 53.1798 67.367 53.6153 67.6838C54.0509 67.9808 54.6449 68.1293 55.3973 68.1293Z" fill="#546D33"/>
<path d="M30.3538 72.7624C29.9437 72.7624 29.6113 72.43 29.6113 72.0199V52.478C29.6113 52.068 29.9437 51.7355 30.3538 51.7355H34.1256C34.5356 51.7355 34.868 52.068 34.868 52.478V56.6932C34.868 57.3617 35.7418 57.7358 36.3509 57.4604C36.391 57.4422 36.4313 57.4248 36.4718 57.408C37.046 57.1506 37.6003 56.9823 38.1349 56.9032C38.6893 56.824 39.1447 56.7844 39.5011 56.7844C40.9266 56.7844 42.0453 57.1209 42.8571 57.7941C43.6886 58.4673 44.2727 59.3682 44.6093 60.4967C44.9657 61.6055 45.1439 62.8132 45.1439 64.12V72.0199C45.1439 72.43 44.8115 72.7624 44.4014 72.7624H40.6296C40.2196 72.7624 39.8872 72.43 39.8872 72.0199V64.5655C39.8872 64.2487 39.8476 63.922 39.7684 63.5854C39.6892 63.229 39.5506 62.9023 39.3526 62.6053C39.1744 62.3084 38.9269 62.0708 38.6101 61.8926C38.2933 61.6946 37.8874 61.5956 37.3925 61.5956C36.9371 61.5956 36.5411 61.6847 36.2045 61.8629C35.8877 62.0213 35.6303 62.249 35.4323 62.546C35.2343 62.8429 35.0858 63.1795 34.9868 63.5557C34.9076 63.9121 34.868 64.2883 34.868 64.6843V72.0199C34.868 72.43 34.5356 72.7624 34.1256 72.7624H30.3538Z" fill="#546D33"/>
</svg>
