<svg width="136" height="73" viewBox="0 0 136 73" fill="none" xmlns="http://www.w3.org/2000/svg">
<path d="M66.1163 46.7758C61.0042 46.7758 56.6124 45.8511 52.941 44.0016C49.2695 42.109 46.4579 39.4423 44.506 36.0013C42.5541 32.5173 41.5781 28.4096 41.5781 23.6783C41.5781 18.8179 42.5773 14.6242 44.5757 11.0972C46.6205 7.52715 49.4554 4.79587 53.0804 2.90333C56.7518 0.967775 61.0274 0 65.9071 0C69.7645 0 73.2732 0.645183 76.4334 1.93555C79.6401 3.22592 82.2427 5.16147 84.241 7.74221C85.2114 8.99541 85.9901 10.4109 86.5769 11.9887C87.6445 14.859 85.1502 17.549 82.0878 17.549H79.8555C77.507 17.549 75.611 15.8183 74.0908 14.0283C73.6927 13.5595 73.242 13.1416 72.7388 12.7746C71.2052 11.6133 69.0674 11.0326 66.3254 11.0326C63.3976 11.0326 61.0739 11.6348 59.3543 12.8392C57.6348 14.0435 56.4033 15.5704 55.6597 17.42C54.9626 19.2695 54.614 21.1835 54.614 23.1621C54.614 25.1407 54.9858 27.0977 55.7294 29.0333C56.5194 30.9688 57.7742 32.5818 59.4938 33.8722C61.2598 35.1195 63.6067 35.7432 66.5345 35.7432C68.3005 35.7432 69.8342 35.5066 71.1354 35.0335C72.4367 34.5173 73.5056 33.7861 74.3421 32.8399C75.9136 31.0793 77.8215 29.2914 80.1814 29.2914H82.7688C85.7863 29.2914 88.2705 31.915 87.1989 34.7358C86.598 36.3176 85.7747 37.7502 84.729 39.0336C82.5912 41.6144 79.8725 43.5499 76.5729 44.8403C73.3197 46.1307 69.8342 46.7758 66.1163 46.7758Z" fill="white"/>
<path d="M5.19732 46.7758C2.32692 46.7758 0 44.4489 0 41.5785V5.19732C0 2.32692 2.32692 0 5.19732 0H36.3812C39.2516 0 41.5785 2.32692 41.5785 5.19731V5.90203C41.5785 8.77243 39.2516 11.0993 36.3812 11.0993H17.6607C15.6904 11.0993 14.0931 12.6966 14.0931 14.667C14.0931 16.6374 15.6904 18.2346 17.6607 18.2346H31.5537C34.4241 18.2346 36.7511 20.5616 36.7511 23.432V23.6081C36.7511 26.4785 34.4241 28.8055 31.5537 28.8055H17.5616C15.646 28.8055 14.0931 30.3584 14.0931 32.274C14.0931 34.1896 15.646 35.7426 17.5616 35.7426H36.3812C39.2516 35.7426 41.5785 38.0695 41.5785 40.9399V41.5785C41.5785 44.4489 39.2516 46.7758 36.3812 46.7758H5.19732Z" fill="white"/>
<path fill-rule="evenodd" clip-rule="evenodd" d="M99.3236 43.8725C102.808 45.8081 106.872 46.7758 111.518 46.7758C116.249 46.7758 120.378 45.7866 123.905 43.808C127.475 41.7864 130.228 39.0121 132.163 35.4851C134.142 31.9151 135.131 27.8074 135.131 23.1621C135.131 18.4308 134.142 14.3446 132.163 10.9036C130.185 7.41962 127.454 4.73135 123.97 2.83881C120.486 0.946269 116.442 0 111.84 0C107.195 0 103.109 0.967775 99.5817 2.90333C96.0547 4.83888 93.3019 7.57016 91.3233 11.0972C89.3448 14.5812 88.3555 18.7103 88.3555 23.4847C88.3555 28.13 89.3017 32.2162 91.1943 35.7432C93.1298 39.2272 95.8396 41.937 99.3236 43.8725ZM108.998 11.466C110.539 10.0375 112.948 10.0375 114.488 11.466L123.476 19.7995C125.848 21.9979 124.65 25.7423 121.738 26.4549V32.4583C121.738 34.6248 119.949 36.3812 117.741 36.3812H105.749C103.542 36.3812 101.752 34.6248 101.752 32.4583V26.4558C98.8379 25.7453 97.6383 21.9988 100.01 19.7995L108.998 11.466Z" fill="white"/>
<path d="M99.0437 72.9998C97.44 72.9998 96.0342 72.683 94.8265 72.0494C93.6385 71.3961 92.7079 70.4754 92.0348 69.2874C91.3814 68.0995 91.0547 66.6838 91.0547 65.0405C91.0547 63.3971 91.3913 61.9617 92.0645 60.7341C92.7376 59.4868 93.6781 58.5166 94.8858 57.8236C96.0936 57.1307 97.4994 56.7842 99.1031 56.7842C100.251 56.7842 101.281 56.9624 102.192 57.3188C103.103 57.6751 103.885 58.1899 104.538 58.8631C105.191 59.5363 105.686 60.3481 106.023 61.2984C106.379 62.2488 106.558 63.3179 106.558 64.5059C106.558 64.8425 106.538 65.1692 106.498 65.486C106.49 65.607 106.477 65.7312 106.459 65.8588C106.411 66.2 106.106 66.4363 105.762 66.4363H97.0767C96.6359 66.4363 96.2857 66.8269 96.4657 67.2293C96.5075 67.3228 96.5551 67.4149 96.6084 67.5055C96.8262 67.8421 97.1232 68.1094 97.4994 68.3074C97.8755 68.5054 98.3507 68.6044 98.9249 68.6044C99.4001 68.6044 99.806 68.5549 100.143 68.4559C100.499 68.3371 100.786 68.1886 101.004 68.0104C101.044 67.9772 101.082 67.944 101.117 67.9109C101.349 67.6912 101.635 67.4758 101.955 67.4758H105.638C106.111 67.4758 106.466 67.9139 106.317 68.3628C106.02 69.258 105.585 70.0215 105.013 70.6536C104.281 71.4654 103.39 72.0593 102.34 72.4355C101.311 72.8117 100.212 72.9998 99.0437 72.9998ZM96.506 62.3027C96.3384 62.677 96.6735 63.021 97.0836 63.021H100.885C101.295 63.021 101.63 62.677 101.463 62.3027C101.433 62.2357 101.398 62.1682 101.36 62.1003C101.202 61.7637 100.925 61.4865 100.529 61.2687C100.152 61.0509 99.6476 60.942 99.014 60.942C98.4002 60.942 97.8953 61.0509 97.4994 61.2687C97.1034 61.4865 96.8064 61.7637 96.6084 62.1003C96.5702 62.1682 96.5361 62.2357 96.506 62.3027Z" fill="white"/>
<path d="M66.4339 72.7628C66.0238 72.7628 65.6914 72.4304 65.6914 72.0203V57.8539C65.6914 57.4439 66.0238 57.1114 66.4339 57.1114H69.8553C70.133 57.1114 70.377 57.2955 70.4533 57.5625C70.5949 58.0582 71.2576 58.1815 71.6528 57.8504C71.8487 57.6862 72.0494 57.5487 72.2549 57.4381C72.7895 57.1609 73.2943 56.9926 73.7695 56.9332C74.2447 56.8541 74.6209 56.8145 74.8981 56.8145C75.7297 56.8145 76.5117 56.9629 77.2443 57.2599C77.6934 57.4254 78.0966 57.6896 78.454 58.0526C78.8224 58.4267 79.4629 58.4662 79.8526 58.1144C80.0852 57.9045 80.3245 57.7286 80.5706 57.5866C81.1052 57.2896 81.6298 57.0916 82.1446 56.9926C82.6792 56.8738 83.1841 56.8145 83.6593 56.8145C84.9264 56.8145 85.9461 57.0718 86.7183 57.5866C87.4904 58.1014 88.0547 58.8241 88.4111 59.7546C88.7873 60.6852 88.9754 61.7841 88.9754 63.0512V72.0203C88.9754 72.4304 88.643 72.7628 88.2329 72.7628H84.4611C84.0511 72.7628 83.7187 72.4304 83.7187 72.0203V64.0313C83.7187 63.7937 83.6989 63.5363 83.6593 63.2591C83.6395 62.9819 83.5702 62.7245 83.4514 62.487C83.3326 62.2296 83.1643 62.0217 82.9465 61.8633C82.7287 61.6851 82.4218 61.596 82.0258 61.596C81.61 61.596 81.2735 61.6752 81.0161 61.8336C80.7587 61.992 80.5508 62.1999 80.3924 62.4573C80.2538 62.7146 80.1548 63.0116 80.0954 63.3482C80.036 63.665 80.0063 63.9917 80.0063 64.3283V72.0203C80.0063 72.4304 79.6739 72.7628 79.2638 72.7628H75.4921C75.082 72.7628 74.7496 72.4304 74.7496 72.0203V64.0016C74.7496 63.7838 74.7298 63.5462 74.6902 63.2888C74.6506 63.0116 74.5714 62.7443 74.4526 62.487C74.3338 62.2296 74.1457 62.0217 73.8883 61.8633C73.6507 61.6851 73.3141 61.596 72.8786 61.596C72.2648 61.596 71.8193 61.7643 71.5421 62.1009C71.2649 62.4375 71.0966 62.8334 71.0372 63.2888C70.9778 63.7442 70.9481 64.1402 70.9481 64.4768V72.0203C70.9481 72.4304 70.6157 72.7628 70.2056 72.7628H66.4339Z" fill="white"/>
<path d="M55.4864 72.9998C53.942 72.9998 52.5462 72.6929 51.2988 72.0791C50.0713 71.4654 49.0912 70.5645 48.3586 69.3765C47.6261 68.1688 47.2598 66.7036 47.2598 64.9811C47.2598 63.219 47.6261 61.734 48.3586 60.5262C49.111 59.2987 50.101 58.3681 51.3285 57.7345C52.5561 57.101 53.9123 56.7842 55.3973 56.7842C56.9218 56.7842 58.288 57.1109 59.4957 57.7642C60.7233 58.4176 61.6935 59.3581 62.4062 60.5856C63.1388 61.8132 63.5051 63.308 63.5051 65.0702C63.5051 66.7729 63.1586 68.2183 62.4656 69.4062C61.7727 70.5942 60.8223 71.4951 59.6145 72.1088C58.4068 72.7028 57.0307 72.9998 55.4864 72.9998ZM55.3973 68.1292C56.1497 68.1292 56.7436 67.9708 57.1792 67.654C57.6148 67.3372 57.9217 66.9412 58.0999 66.466C58.2781 65.9711 58.3672 65.486 58.3672 65.0108C58.3672 64.5356 58.2781 64.0406 58.0999 63.5258C57.9217 63.0111 57.6148 62.5755 57.1792 62.2191C56.7634 61.8627 56.1695 61.6845 55.3973 61.6845C54.6449 61.6845 54.041 61.8627 53.5856 62.2191C53.1501 62.5755 52.8432 63.0111 52.665 63.5258C52.4868 64.0208 52.3977 64.5158 52.3977 65.0108C52.3977 65.5058 52.4868 66.0008 52.665 66.4957C52.863 66.9709 53.1798 67.3669 53.6153 67.6837C54.0509 67.9807 54.6449 68.1292 55.3973 68.1292Z" fill="white"/>
<path d="M30.3538 72.7622C29.9437 72.7622 29.6113 72.4298 29.6113 72.0197V52.4778C29.6113 52.0678 29.9437 51.7354 30.3538 51.7354H34.1256C34.5356 51.7354 34.868 52.0678 34.868 52.4778V56.693C34.868 57.3615 35.7418 57.7357 36.3509 57.4602C36.391 57.4421 36.4313 57.4246 36.4718 57.4079C37.046 57.1505 37.6003 56.9822 38.1349 56.903C38.6893 56.8238 39.1447 56.7842 39.5011 56.7842C40.9266 56.7842 42.0453 57.1208 42.8571 57.7939C43.6886 58.4671 44.2727 59.368 44.6093 60.4965C44.9657 61.6053 45.1439 62.8131 45.1439 64.1198V72.0197C45.1439 72.4298 44.8115 72.7622 44.4014 72.7622H40.6296C40.2196 72.7622 39.8872 72.4298 39.8872 72.0197V64.5653C39.8872 64.2485 39.8476 63.9218 39.7684 63.5852C39.6892 63.2288 39.5506 62.9022 39.3526 62.6052C39.1744 62.3082 38.9269 62.0706 38.6101 61.8924C38.2933 61.6944 37.8874 61.5954 37.3925 61.5954C36.9371 61.5954 36.5411 61.6845 36.2045 61.8627C35.8877 62.0211 35.6303 62.2488 35.4323 62.5458C35.2343 62.8428 35.0858 63.1793 34.9868 63.5555C34.9076 63.9119 34.868 64.2881 34.868 64.6841V72.0197C34.868 72.4298 34.5356 72.7622 34.1256 72.7622H30.3538Z" fill="white"/>
</svg>
