<svg width="559" height="1054" viewBox="0 0 559 1054" fill="none" xmlns="http://www.w3.org/2000/svg">
<g filter="url(#filter0_f_187_103)">
<path fill-rule="evenodd" clip-rule="evenodd" d="M30.4535 527L278.727 957.406H775.273L1023.55 527L775.273 96.5939H278.727L30.4535 527ZM275.5 91L24 527L275.5 963H778.5L1030 527L778.5 91H275.5Z" fill="#95B73C"/>
<path fill-rule="evenodd" clip-rule="evenodd" d="M527 1023.55L957.406 775.273V278.727L527 30.4535L96.5939 278.727L96.5939 775.273L527 1023.55ZM91 778.5L527 1030L963 778.5V275.5L527 24L91 275.5L91 778.5Z" fill="#95B73C"/>
<path fill-rule="evenodd" clip-rule="evenodd" d="M527 98L210 843H844L527 98ZM527 112.286L218.456 837.412H835.544L527 112.286Z" fill="#95B73C"/>
<path fill-rule="evenodd" clip-rule="evenodd" d="M99 526L844 843V209L99 526ZM113.286 526L838.412 834.544V217.456L113.286 526Z" fill="#95B73C"/>
<path fill-rule="evenodd" clip-rule="evenodd" d="M955 526L210 843V209L955 526ZM940.714 526L215.588 834.544V217.456L940.714 526Z" fill="#95B73C"/>
</g>
<defs>
<filter id="filter0_f_187_103" x="0.299999" y="0.299999" width="1053.4" height="1053.4" filterUnits="userSpaceOnUse" color-interpolation-filters="sRGB">
<feFlood flood-opacity="0" result="BackgroundImageFix"/>
<feBlend mode="normal" in="SourceGraphic" in2="BackgroundImageFix" result="shape"/>
<feGaussianBlur stdDeviation="11.85" result="effect1_foregroundBlur_187_103"/>
</filter>
</defs>
</svg>
