<svg width="537" height="975" viewBox="0 0 537 975" fill="none" xmlns="http://www.w3.org/2000/svg">
<g filter="url(#filter0_f_150_58)">
<path fill-rule="evenodd" clip-rule="evenodd" d="M620.485 837.933C816.335 765.252 916.877 549.432 845.051 355.886C773.225 162.34 556.23 64.3589 360.38 137.04C164.53 209.721 63.9886 425.541 135.815 619.087C207.64 812.633 424.635 910.614 620.485 837.933ZM621.946 841.87C819.997 768.373 921.668 550.128 849.035 354.407C776.402 158.686 556.97 59.6046 358.919 133.102C160.868 206.6 59.1971 424.845 131.83 620.565C204.463 816.286 423.896 915.368 621.946 841.87Z" fill="#95B73C"/>
<path fill-rule="evenodd" clip-rule="evenodd" d="M399.051 532.902C446.438 660.593 516.267 768.716 595.446 847.061C596.588 848.191 597.732 849.314 598.877 850.431C597.32 850.898 595.761 851.354 594.202 851.8C403.717 906.273 201.17 807.414 131.925 620.82C127.519 608.949 123.754 596.994 120.612 584.994C117.754 574.077 115.412 563.122 113.572 552.158C113.39 551.07 113.212 549.982 113.04 548.895C111.137 536.902 109.834 524.902 109.114 512.93C105.945 460.269 114.049 408.157 131.971 359.713C140.891 335.604 152.242 312.403 165.846 290.495C189.594 252.25 220.207 217.945 256.732 189.627L256.732 189.627L257.24 189.233C260.852 186.442 264.522 183.71 268.249 181.037C283.478 170.117 299.654 160.206 316.714 151.439C318.879 150.326 321.059 149.232 323.253 148.156C323.253 148.157 323.253 148.157 323.253 148.158C329.193 145.245 335.237 142.469 341.381 139.836C342.88 139.194 344.384 138.561 345.895 137.936C345.695 139.532 345.501 141.132 345.313 142.736C331.649 259.178 348.221 395.931 399.051 532.902ZM319.859 154.557C326.703 151.07 333.689 147.77 340.815 144.663C327.568 261.316 344.374 397.803 395.059 534.384C442.303 661.689 511.798 769.722 590.765 848.4C576.959 852.257 563.092 855.3 549.221 857.558C549.221 857.557 549.221 857.557 549.22 857.557C446.908 803.426 357.149 701.472 307.968 568.947C252.766 420.196 261.436 267.284 319.859 154.557ZM313.4 157.925C256.788 271.304 249.276 423.031 303.976 570.429C352.685 701.682 441.004 803.327 542.26 858.624C534.142 859.791 526.026 860.691 517.923 861.327C514.701 861.58 511.482 861.791 508.265 861.962C381.354 829.812 268.153 730.902 215.755 589.71C163.359 448.518 184.629 299.706 259.84 192.547C276.487 179.685 294.371 168.079 313.4 157.925ZM248.698 201.497C178.921 308.849 160.734 453.684 211.764 591.191C262.793 728.699 371.064 826.606 493.982 862.448C493.891 862.449 493.799 862.451 493.708 862.452C488.414 862.529 483.131 862.494 477.862 862.35C468.56 862.095 459.3 861.5 450.101 860.57C407.419 856.257 366.035 844.762 327.709 826.879C241.817 786.801 171.284 714.64 135.916 619.338C135.645 618.607 135.377 617.877 135.11 617.146C131.335 606.775 128.052 596.342 125.249 585.872C125.087 585.267 124.927 584.661 124.768 584.055C115.47 548.6 111.676 512.74 112.926 477.459C116.689 371.336 166.098 270.441 248.698 201.497Z" fill="#95B73C"/>
<path fill-rule="evenodd" clip-rule="evenodd" d="M589.319 462.293C636.705 589.984 654.318 717.485 645.417 828.517C645.288 830.118 645.155 831.715 645.015 833.309C646.5 832.647 647.979 831.976 649.452 831.297C829.357 748.316 918.376 541.256 849.13 354.662C844.724 342.79 839.779 331.274 834.332 320.13C829.376 309.991 824.005 300.16 818.246 290.65C817.675 289.706 817.1 288.766 816.521 287.829C810.139 277.499 803.298 267.554 796.034 258.01C764.081 216.031 723.943 181.822 678.756 156.798C656.268 144.344 632.53 134.166 607.928 126.436C564.979 112.943 519.398 106.914 473.242 109.279L473.242 109.279L472.6 109.312C468.041 109.553 463.477 109.876 458.91 110.282C440.243 111.941 421.518 114.982 402.869 119.467C400.502 120.036 398.135 120.629 395.771 121.245C395.771 121.245 395.772 121.245 395.772 121.245C389.37 122.913 382.979 124.752 376.604 126.765C375.049 127.256 373.496 127.757 371.943 128.269C373.136 129.348 374.327 130.435 375.516 131.528C461.834 210.866 538.488 325.322 589.319 462.293ZM402.519 123.881C395.057 125.704 387.609 127.76 380.182 130.054C466.322 209.823 542.625 324.231 593.31 460.812C640.554 588.117 658.361 715.332 649.839 826.478C662.818 820.394 675.313 813.655 687.299 806.316C687.299 806.316 687.299 806.316 687.299 806.315C729.529 698.544 731.046 562.717 681.865 430.192C626.663 281.441 520.337 171.204 402.519 123.881ZM409.611 122.22C526.482 171.219 631.157 281.313 685.857 428.711C734.566 559.964 733.939 694.618 693.27 802.583C700.184 798.172 706.923 793.559 713.479 788.755C716.086 786.846 718.663 784.905 721.212 782.936C796.425 675.777 817.696 526.964 765.298 385.772C712.901 244.58 599.701 145.671 472.791 113.52C451.783 114.632 430.658 117.502 409.611 122.22ZM487.074 113.034C609.992 148.877 718.261 246.783 769.29 384.29C820.32 521.798 802.133 666.634 732.355 773.986C732.425 773.928 732.495 773.87 732.566 773.811C736.627 770.416 740.609 766.942 744.509 763.396C751.393 757.135 758.022 750.643 764.387 743.937C793.922 712.824 817.788 677.114 835.17 638.558C874.122 552.149 880.504 451.445 845.137 356.142C844.866 355.412 844.593 354.683 844.318 353.955C840.414 343.632 836.096 333.583 831.39 323.82C831.118 323.255 830.844 322.691 830.569 322.128C814.486 289.191 793.969 259.538 770.004 233.614C697.922 155.638 594.654 111.402 487.074 113.034Z" fill="#95B73C"/>
<path fill-rule="evenodd" clip-rule="evenodd" d="M618.068 839.405L357.588 137.501L362.798 135.568L623.278 837.471L618.068 839.405Z" fill="#95B73C"/>
<path fill-rule="evenodd" clip-rule="evenodd" d="M535.554 577.704C664.764 529.753 774.404 459.711 854.068 380.631C855.217 379.491 856.359 378.349 857.496 377.205C857.954 378.745 858.403 380.286 858.841 381.828C912.336 570.197 811.019 771.704 622.204 841.775C610.191 846.233 598.1 850.056 585.967 853.263C574.929 856.18 563.857 858.586 552.779 860.494C551.68 860.683 550.582 860.867 549.483 861.047C537.367 863.025 525.248 864.409 513.162 865.215C460.001 868.762 407.481 861.133 358.737 843.744C334.479 835.09 311.156 824.019 289.155 810.705C250.748 787.464 216.369 757.388 188.077 721.407L188.076 721.407L187.683 720.906C184.895 717.348 182.166 713.732 179.499 710.059C168.597 695.049 158.722 679.094 150.007 662.254C148.901 660.116 147.813 657.964 146.745 655.797C146.745 655.798 146.746 655.798 146.746 655.798C143.853 649.933 141.099 643.965 138.49 637.895C137.853 636.415 137.226 634.929 136.607 633.436C138.216 633.622 139.829 633.802 141.446 633.976C258.835 646.619 396.952 629.139 535.554 577.704ZM153.177 659.112C149.712 652.356 146.435 645.457 143.356 638.419C260.96 650.648 398.811 632.938 537.018 581.649C665.838 533.843 775.385 464.132 855.384 385.26C859.168 398.914 862.132 412.634 864.303 426.364C864.303 426.364 864.302 426.365 864.302 426.365C808.892 528.185 705.323 617.932 571.221 667.698C420.7 723.557 266.472 716.145 153.177 659.112ZM156.526 665.488C270.493 720.72 423.533 726.994 572.685 671.643C705.501 622.355 808.747 534.037 865.325 433.255C866.44 441.292 867.285 449.329 867.865 457.355C868.095 460.545 868.284 463.735 868.43 466.921C835.01 592.951 734.333 705.909 591.459 758.93C448.587 811.951 298.595 792.019 191.048 718.304C178.198 701.904 166.624 684.269 156.526 665.488ZM199.992 729.278C307.776 797.605 453.779 814.512 592.923 762.875C732.069 711.238 831.696 603.175 868.811 481.074C868.811 481.164 868.812 481.255 868.813 481.345C868.849 486.591 868.773 491.828 868.587 497.052C868.259 506.273 867.586 515.454 866.577 524.578C861.896 566.914 849.977 608.019 831.637 646.142C790.534 731.579 717.176 802.042 620.739 837.83C620 838.104 619.261 838.376 618.521 838.646C608.027 842.468 597.475 845.802 586.889 848.66C586.276 848.826 585.664 848.989 585.051 849.152C549.204 858.64 512.991 862.678 477.4 861.711C370.347 858.801 268.922 810.611 199.992 729.278Z" fill="#95B73C"/>
<path fill-rule="evenodd" clip-rule="evenodd" d="M465.291 388.366C594.502 340.416 723.243 321.846 835.129 329.592C836.742 329.703 838.352 329.82 839.959 329.943C839.304 328.484 838.641 327.031 837.97 325.584C755.97 148.84 547.994 62.9363 359.179 133.006C347.166 137.464 335.506 142.452 324.217 147.931C313.946 152.915 303.982 158.307 294.338 164.079C293.381 164.651 292.428 165.227 291.478 165.807C281.001 172.2 270.908 179.044 261.216 186.301C218.584 218.221 183.711 258.147 158.054 302.968C145.285 325.274 134.799 348.793 126.775 373.141C112.766 415.646 106.261 460.679 108.214 506.201L108.214 506.201L108.242 506.834C108.443 511.33 108.726 515.83 109.092 520.333C110.591 538.736 113.483 557.185 117.831 575.545C118.383 577.875 118.959 580.205 119.558 582.532C119.558 582.532 119.558 582.531 119.558 582.531C121.18 588.833 122.975 595.122 124.946 601.393C125.426 602.923 125.917 604.451 126.419 605.978C127.518 604.791 128.625 603.606 129.738 602.422C210.552 516.508 326.69 439.802 465.291 388.366ZM122.28 575.849C124.047 583.195 126.051 590.525 128.296 597.832C209.542 512.089 325.628 435.73 463.835 384.441C592.655 336.635 721.11 317.876 833.114 325.248C827.1 312.497 820.421 300.231 813.133 288.473C813.132 288.472 813.132 288.472 813.132 288.472C704.846 247.809 567.886 247.581 433.784 297.347C283.262 353.206 171.102 459.152 122.28 575.849ZM120.671 568.866C171.175 453.088 283.175 348.773 432.327 293.422C565.143 244.133 700.927 243.494 809.424 282.615C805.04 275.834 800.451 269.228 795.668 262.803C793.767 260.249 791.834 257.724 789.872 255.227C682.511 182.013 532.641 162.414 389.768 215.435C246.895 268.456 146.095 381.078 112.487 506.606C113.412 527.324 116.109 548.143 120.671 568.866ZM112.131 492.516C149.424 370.894 249.167 263.147 388.311 211.51C527.456 159.873 673.344 176.466 780.951 244.316C780.892 244.247 780.834 244.178 780.776 244.11C777.39 240.133 773.924 236.237 770.384 232.422C764.134 225.688 757.65 219.208 750.947 212.989C719.847 184.136 684.059 160.92 645.339 144.13C558.566 106.501 457.071 101.144 360.634 136.932C359.895 137.206 359.158 137.483 358.421 137.761C347.974 141.709 337.8 146.064 327.911 150.799C327.339 151.073 326.768 151.348 326.197 151.624C292.832 167.802 262.737 188.324 236.37 212.213C157.063 284.067 111.489 386.379 112.131 492.516Z" fill="#95B73C"/>
<path fill-rule="evenodd" clip-rule="evenodd" d="M846.517 358.27L137.995 621.206L136.085 616.058L844.607 353.122L846.517 358.27Z" fill="#95B73C"/>
</g>
<defs>
<filter id="filter0_f_150_58" x="70.775" y="71.5021" width="839.398" height="832.303" filterUnits="userSpaceOnUse" color-interpolation-filters="sRGB">
<feFlood flood-opacity="0" result="BackgroundImageFix"/>
<feBlend mode="normal" in="SourceGraphic" in2="BackgroundImageFix" result="shape"/>
<feGaussianBlur stdDeviation="18.55" result="effect1_foregroundBlur_150_58"/>
</filter>
</defs>
</svg>
