<svg width="786" height="1690" viewBox="0 0 786 1690" fill="none" xmlns="http://www.w3.org/2000/svg">
<g filter="url(#filter0_f_156_3)">
<path fill-rule="evenodd" clip-rule="evenodd" d="M-169.257 343.842L-238.439 311.77C-328.092 270.207 -429.949 329.982 -437.383 428.521L-443.119 504.559C-447.159 558.108 -478.34 605.361 -525.658 629.481L-592.728 663.669C-679.49 707.895 -695.597 826.462 -623.617 895.239L-568.216 948.175C-529.235 985.421 -511.704 1040.03 -521.883 1092.64L-536.336 1167.34C-555.096 1264.31 -472.791 1352.34 -375.86 1339.35L-301.04 1329.32C-248.283 1322.25 -195.259 1343.23 -160.751 1384.72L-111.703 1443.68C-48.0217 1520.24 70.2169 1511.25 119.249 1426.59L157.147 1361.15C183.87 1315 232.538 1286.44 285.854 1285.61L361.468 1284.44C459.294 1282.92 524.803 1184.08 489.018 1091.15L461.456 1019.57C442.064 969.213 449.604 912.691 481.505 870.08L526.747 809.65C585.357 731.361 548.636 616.575 454.833 585.668L382.566 561.856C331.67 545.086 292.548 503.153 279.04 450.959L259.841 376.777C234.898 280.396 123.53 236.639 42.6091 290.818L-19.9451 332.7C-64.0775 362.249 -120.537 366.428 -169.257 343.842ZM-235.844 306.172C-329.406 262.797 -435.777 325.222 -443.535 428.057L-449.272 504.095C-453.152 555.531 -483.091 600.858 -528.461 623.984L-595.53 658.172C-686.236 704.408 -702.804 828.109 -627.879 899.7L-572.478 952.636C-535.002 988.444 -518.164 1040.93 -527.941 1091.46L-542.394 1166.17C-561.94 1267.2 -476.228 1359.03 -375.041 1345.46L-300.22 1335.44C-249.608 1328.65 -198.672 1348.78 -165.494 1388.66L-116.447 1447.63C-50.115 1527.38 73.3335 1518.18 124.588 1429.68L162.486 1364.24C188.123 1319.97 234.801 1292.58 285.95 1291.78L361.563 1290.61C463.824 1289.02 532.05 1185.73 494.776 1088.93L467.214 1017.36C448.57 968.939 455.84 914.656 486.444 873.778L531.686 813.347C592.871 731.621 554.499 612.011 456.764 579.808L384.497 555.996C335.612 539.889 298 499.592 285.013 449.413L265.815 375.231C239.85 274.908 123.776 229.049 39.1765 285.691L-23.3777 327.574C-65.6925 355.905 -119.864 359.939 -166.662 338.244L-235.844 306.172Z" fill="#95B73C"/>
<path fill-rule="evenodd" clip-rule="evenodd" d="M-149.341 415.9L-210.225 387.674C-288.657 351.314 -377.755 403.602 -384.259 489.807L-389.307 556.725C-392.882 604.106 -420.472 645.923 -462.349 667.269L-521.375 697.357C-597.257 736.037 -611.378 839.767 -548.383 899.958L-499.627 946.545C-465.141 979.496 -449.629 1027.81 -458.636 1074.36L-471.355 1140.1C-487.771 1224.95 -415.746 1301.97 -330.952 1290.61L-265.105 1281.78C-218.418 1275.52 -171.503 1294.09 -140.973 1330.79L-97.8087 1382.69C-42.0828 1449.68 61.3496 1441.79 104.234 1367.74L137.587 1310.15C161.235 1269.32 204.305 1244.04 251.487 1243.31L318.032 1242.28C403.593 1240.95 460.919 1154.49 429.605 1073.17L405.349 1010.18C388.193 965.629 394.861 915.616 423.091 877.908L462.907 824.726C514.179 756.24 482.06 655.799 399.979 628.754L336.379 607.798C291.347 592.96 256.735 555.86 244.784 509.683L227.889 444.399C206.059 360.05 108.613 321.793 37.839 369.179L-17.2128 406.038C-56.2703 432.189 -106.233 435.884 -149.341 415.9ZM-207.63 382.076C-289.97 343.904 -383.584 398.841 -390.412 489.343L-395.46 556.261C-398.875 601.528 -425.223 641.419 -465.151 661.771L-524.177 691.859C-604.004 732.55 -618.585 841.415 -552.646 904.42L-503.89 951.006C-470.909 982.52 -456.09 1028.71 -464.694 1073.18L-477.413 1138.93C-494.615 1227.84 -419.184 1308.66 -330.132 1296.72L-264.285 1287.9C-219.743 1281.93 -174.916 1299.64 -145.717 1334.74L-102.553 1386.63C-44.1762 1456.82 64.4664 1448.72 109.574 1370.84L142.927 1313.24C165.488 1274.29 206.568 1250.18 251.582 1249.48L318.128 1248.45C408.124 1247.05 468.167 1156.14 435.363 1070.95L411.107 1007.96C394.699 965.354 401.097 917.582 428.03 881.606L467.846 828.424C521.693 756.499 487.924 651.234 401.91 622.893L338.31 601.938C295.288 587.762 262.187 552.299 250.758 508.137L233.862 442.853C211.012 354.562 108.859 314.203 34.4061 364.052L-20.6458 400.911C-57.8855 425.844 -105.56 429.395 -146.745 410.302L-207.63 382.076Z" fill="#95B73C"/>
<path fill-rule="evenodd" clip-rule="evenodd" d="M-136.498 476.609L-189.085 452.23C-256.295 421.071 -332.635 465.872 -338.209 539.743L-342.569 597.542C-345.678 638.754 -369.678 675.135 -406.114 693.707L-457.095 719.695C-522.099 752.829 -534.232 841.723 -480.224 893.328L-438.112 933.566C-408.121 962.222 -394.629 1004.24 -402.462 1044.73L-413.449 1101.51C-427.52 1174.24 -365.775 1240.25 -293.117 1230.51L-236.244 1222.89C-195.627 1217.44 -154.821 1233.6 -128.27 1265.52L-90.9882 1310.34C-43.218 1367.77 45.4081 1360.99 82.1449 1297.55L110.953 1247.81C131.526 1212.28 168.998 1190.29 210.045 1189.65L267.521 1188.76C340.818 1187.62 389.961 1113.56 363.117 1043.85L342.167 989.44C327.247 950.694 333.043 907.192 357.603 874.387L391.992 828.452C435.926 769.768 408.409 683.673 338.051 660.491L283.118 642.391C243.948 629.485 213.848 597.217 203.455 557.059L188.861 500.671C170.146 428.355 86.6217 395.599 25.9947 436.191L-21.5547 468.027C-55.5373 490.779 -99.0028 493.991 -136.498 476.609ZM-186.49 446.631C-257.609 413.661 -338.465 461.111 -344.362 539.279L-348.723 597.078C-351.672 636.176 -374.43 670.63 -408.916 688.209L-459.898 714.197C-528.846 749.342 -541.44 843.371 -484.487 897.789L-442.375 938.027C-413.889 965.246 -401.09 1005.14 -408.521 1043.56L-419.507 1100.34C-434.365 1177.14 -369.213 1246.94 -292.297 1236.63L-235.424 1229.01C-196.952 1223.85 -158.234 1239.15 -133.015 1269.47L-95.7325 1314.29C-45.3117 1374.9 48.5252 1367.92 87.4851 1300.64L116.293 1250.9C135.78 1217.25 171.261 1196.43 210.141 1195.82L267.617 1194.93C345.349 1193.72 397.209 1115.21 368.876 1041.63L347.926 987.223C333.754 950.42 339.28 909.158 362.543 878.085L396.932 832.15C443.441 770.027 414.274 679.108 339.982 654.63L285.05 636.53C247.891 624.286 219.3 593.656 209.429 555.513L194.836 499.125C175.1 422.866 86.8677 388.007 22.5614 431.063L-24.9879 462.899C-57.1527 484.435 -98.3303 487.501 -133.903 471.01L-186.49 446.631Z" fill="#95B73C"/>
<path fill-rule="evenodd" clip-rule="evenodd" d="M-123.656 537.318L-167.946 516.785C-223.934 490.83 -287.516 528.143 -292.158 589.68L-295.831 638.359C-298.474 673.402 -318.884 704.347 -349.878 720.146L-392.816 742.033C-446.94 769.622 -457.086 843.679 -412.065 886.697L-376.597 920.586C-351.101 944.949 -339.628 980.668 -346.289 1015.1L-355.542 1062.92C-367.268 1123.54 -315.804 1178.53 -255.283 1170.42L-207.383 1164C-172.836 1159.37 -138.139 1173.11 -115.567 1200.24L-84.1674 1237.99C-44.3532 1285.86 29.4664 1280.18 60.0558 1227.36L84.3182 1185.46C101.817 1155.25 133.691 1136.54 168.604 1136L217.011 1135.25C278.042 1134.3 319.003 1072.62 296.629 1014.52L278.984 968.7C266.3 935.76 271.225 898.768 292.114 870.865L321.078 832.178C357.673 783.297 334.759 711.548 276.123 692.228L229.857 676.984C196.55 666.009 170.96 638.574 162.125 604.434L149.834 556.944C134.233 496.661 64.6306 469.404 14.1505 503.203L-25.8964 530.016C-54.8043 549.371 -91.7729 552.098 -123.656 537.318ZM-165.35 511.186C-225.248 483.418 -293.346 523.382 -298.313 589.216L-301.985 637.895C-304.469 670.824 -323.636 699.842 -352.681 714.647L-395.619 736.534C-453.688 766.135 -464.295 845.327 -416.329 891.159L-380.861 925.049C-356.869 947.973 -346.089 981.575 -352.348 1013.93L-361.601 1061.75C-374.115 1126.43 -319.243 1185.22 -254.463 1176.54L-206.563 1170.12C-174.162 1165.77 -141.552 1178.66 -120.312 1204.19L-88.9124 1241.94C-46.4471 1292.99 32.5839 1287.11 65.3966 1230.45L89.659 1188.55C106.071 1160.21 135.954 1142.68 168.7 1142.17L217.107 1141.42C282.574 1140.4 326.252 1074.27 302.389 1012.3L284.744 966.482C272.808 935.486 277.463 900.734 297.055 874.564L326.019 835.877C365.189 783.556 340.624 706.982 278.054 686.366L231.789 671.122C200.493 660.81 176.414 635.013 168.1 602.888L155.809 555.397C139.187 491.171 64.8766 461.812 10.7168 498.074L-29.3301 524.887C-56.4198 543.025 -91.1003 545.607 -121.06 531.718L-165.35 511.186Z" fill="#95B73C"/>
<path fill-rule="evenodd" clip-rule="evenodd" d="M-110.362 598.796L-146.329 582.154C-191.063 561.455 -241.887 591.281 -245.631 640.43L-248.641 679.946C-250.838 708.788 -267.667 734.279 -293.22 747.307L-328.111 765.096C-371.354 787.144 -379.549 846.3 -343.553 880.667L-314.76 908.156C-293.78 928.186 -284.35 957.571 -289.856 985.911L-297.398 1024.74C-306.81 1073.18 -265.672 1117.08 -217.303 1110.57L-178.389 1105.33C-149.92 1101.5 -121.351 1112.8 -102.781 1135.11L-77.2944 1165.74C-45.475 1203.97 13.5173 1199.36 37.978 1157.18L57.7103 1123.16C72.1457 1098.27 98.4219 1082.85 127.189 1082.39L166.513 1081.75C215.259 1080.96 248.057 1031.71 230.193 985.285L215.885 948.101C205.46 921.006 209.531 890.557 226.759 867.571L250.309 836.152C279.58 797.099 261.314 739.775 214.43 724.368L176.856 712.019C149.428 703.006 128.373 680.444 121.117 652.359L111.159 613.817C98.7096 565.631 43.0669 543.939 2.73163 570.939L-29.8146 592.726C-53.6491 608.681 -84.1105 610.943 -110.362 598.796ZM-143.73 576.558C-192.372 554.052 -247.712 586.529 -251.783 639.97L-254.793 679.486C-256.83 706.216 -272.416 729.781 -296.018 741.815L-330.91 759.605C-378.098 783.664 -386.758 847.952 -347.819 885.128L-319.026 912.617C-299.549 931.211 -290.811 958.481 -295.913 984.744L-303.456 1023.57C-313.657 1076.08 -269.115 1123.77 -216.487 1116.68L-177.573 1111.45C-151.25 1107.9 -124.767 1118.34 -107.527 1139.06L-82.0411 1169.68C-47.5733 1211.1 16.6295 1206.28 43.3157 1160.27L63.048 1126.25C76.396 1103.24 100.681 1088.98 127.281 1088.55L166.605 1087.92C219.786 1087.06 255.304 1033.35 235.953 983.066L221.645 945.881C211.966 920.727 215.766 892.516 231.696 871.263L255.246 839.844C287.094 797.352 267.181 735.21 216.365 718.51L178.791 706.162C153.374 697.809 133.828 676.882 127.092 650.81L117.134 612.268C103.667 560.144 43.318 536.354 -0.697855 565.818L-33.2441 587.605C-55.26 602.342 -83.4336 604.458 -107.763 593.2L-143.73 576.558Z" fill="#95B73C"/>
<path fill-rule="evenodd" clip-rule="evenodd" d="M-97.5214 659.505L-125.191 646.71C-158.703 631.212 -196.767 653.551 -199.58 690.365L-201.902 720.762C-203.634 743.435 -216.874 763.49 -236.985 773.744L-263.833 787.434C-296.195 803.935 -302.403 848.256 -275.392 874.037L-253.244 895.177C-236.758 910.912 -229.348 934.001 -233.682 956.281L-239.491 986.147C-246.558 1022.48 -215.7 1055.36 -179.467 1050.48L-149.527 1046.44C-127.128 1043.43 -104.667 1052.31 -90.0764 1069.84L-70.4727 1093.39C-46.6087 1122.06 -2.42313 1118.55 15.8891 1086.99L31.0761 1060.82C42.4374 1041.24 63.1158 1029.11 85.7492 1028.73L116.004 1028.24C152.485 1027.64 177.098 990.777 163.705 955.961L152.702 927.361C144.513 906.074 147.713 882.135 161.271 864.052L179.395 839.88C201.327 810.629 187.662 767.651 152.501 756.104L123.594 746.612C102.029 739.531 85.4846 721.802 79.7864 699.736L72.1311 670.091C62.795 633.937 21.0743 617.744 -9.11342 637.95L-34.1572 654.714C-52.9173 667.271 -76.882 669.05 -97.5214 659.505ZM-122.59 641.114C-160.01 623.809 -202.593 648.799 -205.734 689.907L-208.056 720.303C-209.627 740.865 -221.622 758.993 -239.783 768.253L-266.631 781.943C-302.94 800.457 -309.613 849.908 -279.66 878.498L-257.512 899.638C-242.53 913.938 -235.811 934.913 -239.741 955.115L-245.55 984.981C-253.406 1025.37 -219.144 1062.05 -178.653 1056.59L-148.712 1052.56C-128.459 1049.83 -108.086 1057.85 -94.8248 1073.78L-75.2211 1097.34C-48.7088 1129.19 0.68822 1125.47 21.2272 1090.08L36.4142 1063.9C46.6874 1046.2 65.3738 1035.23 85.8396 1034.9L116.094 1034.4C157.011 1033.73 184.346 992.42 169.466 953.741L158.464 925.14C151.021 905.794 153.949 884.093 166.209 867.742L184.332 843.571C208.842 810.881 193.531 763.084 154.437 750.247L125.53 740.754C105.976 734.333 90.9412 718.239 85.7627 698.186L78.1074 668.541C67.7543 628.448 21.327 610.159 -12.5425 632.83L-37.5864 649.593C-54.5272 660.933 -76.2037 662.565 -94.9206 653.909L-122.59 641.114Z" fill="#95B73C"/>
</g>
<defs>
<filter id="filter0_f_156_3" x="-927.3" y="-23.3" width="1736.6" height="1736.6" filterUnits="userSpaceOnUse" color-interpolation-filters="sRGB">
<feFlood flood-opacity="0" result="BackgroundImageFix"/>
<feBlend mode="normal" in="SourceGraphic" in2="BackgroundImageFix" result="shape"/>
<feGaussianBlur stdDeviation="11.65" result="effect1_foregroundBlur_156_3"/>
</filter>
</defs>
</svg>
