<svg width="436" height="1145" viewBox="0 0 436 1145" fill="none" xmlns="http://www.w3.org/2000/svg">
<g filter="url(#filter0_f_187_83)">
<path fill-rule="evenodd" clip-rule="evenodd" d="M-136 1133C-134.133 1133 -132.266 1132.99 -130.4 1132.97C-58.7652 1132.25 12.0854 1117.79 78.3027 1090.33C146.245 1062.17 207.979 1020.88 259.98 968.833C311.981 916.786 353.23 854.997 381.373 786.994C409.515 718.991 424 646.106 424 572.5C424 498.894 409.515 426.009 381.373 358.006C353.23 290.003 311.981 228.214 259.98 176.167C207.979 124.119 146.245 82.8333 78.3028 54.6655C12.0855 27.2129 -58.7651 12.745 -130.4 12.028C-132.266 12.0093 -134.133 12 -136 12L-136 1133ZM76.1597 59.8439C10.6219 32.673 -59.5005 18.3501 -130.4 17.6333L-130.4 124.135C-13.6076 125.594 98.0883 172.664 180.784 255.433C264.8 339.525 312 453.577 312 572.5C312 691.423 264.8 805.475 180.784 889.567C98.0884 972.336 -13.6076 1019.41 -130.4 1020.87L-130.4 1127.37C-59.5006 1126.65 10.6218 1112.33 76.1597 1085.16C143.423 1057.27 204.539 1016.4 256.02 964.87C307.501 913.343 348.338 852.172 376.199 784.849C404.06 717.526 418.4 645.37 418.4 572.5C418.4 499.63 404.06 427.474 376.199 360.151C348.338 292.828 307.501 231.657 256.02 180.13C204.539 128.603 143.423 87.73 76.1597 59.8439ZM-130.4 241.852L-130.4 129.74C-15.0929 131.2 95.1787 177.678 176.824 259.397C259.79 342.437 306.4 455.063 306.4 572.5C306.4 689.936 259.79 802.563 176.824 885.603C95.1788 967.322 -15.0928 1013.8 -130.4 1015.26L-130.4 914.358C-43.3135 912.907 39.8968 877.651 101.588 815.905C164.6 752.837 200 667.297 200 578.105C200 488.913 164.6 403.373 101.588 340.305C39.8968 278.559 -43.3135 243.303 -130.4 241.852ZM-130.4 247.457L-130.4 353.975C-102.892 354.664 -75.73 360.42 -50.2789 370.971C-23.102 382.238 1.5916 398.753 22.3919 419.572C43.1922 440.391 59.692 465.106 70.949 492.307C82.2061 519.509 88 548.663 88 578.105C88 607.547 82.2061 636.701 70.949 663.903C59.692 691.104 43.1922 715.819 22.3919 736.638C1.59159 757.457 -23.102 773.972 -50.2789 785.239C-75.7301 795.79 -102.892 801.546 -130.4 802.235L-130.4 908.753C-44.7988 907.302 36.9872 872.637 97.6281 811.942C159.59 749.924 194.4 665.811 194.4 578.105C194.4 490.399 159.59 406.286 97.6281 344.268C36.9872 283.573 -44.7989 248.908 -130.4 247.457ZM-130.4 359.582C-103.628 360.269 -77.1936 365.88 -52.4219 376.15C-25.9244 387.135 -1.84819 403.237 18.4321 423.535C38.7124 443.833 54.7997 467.931 65.7753 494.452C76.7509 520.973 82.4 549.399 82.4 578.105C82.4 606.811 76.7509 635.237 65.7753 661.758C54.7997 688.279 38.7124 712.377 18.4321 732.675C-1.8482 752.973 -25.9244 769.075 -52.4219 780.061C-77.1936 790.33 -103.628 795.941 -130.4 796.628L-130.4 690.065C-102.735 688.68 -76.4844 677.07 -56.804 657.372C-35.8 636.349 -24 607.836 -24 578.105C-24 548.374 -35.8 519.861 -56.8041 498.838C-76.4844 479.14 -102.735 467.53 -130.4 466.145L-130.4 359.582ZM-130.4 471.757C-104.221 473.137 -79.3938 484.155 -60.7639 502.802C-40.81 522.773 -29.6 549.861 -29.6 578.105C-29.6 606.349 -40.81 633.437 -60.7638 653.408C-79.3938 672.055 -104.221 683.073 -130.4 684.453L-130.4 471.757Z" fill="#95B73C"/>
</g>
<defs>
<filter id="filter0_f_187_83" x="-147.1" y="0.9" width="582.2" height="1143.2" filterUnits="userSpaceOnUse" color-interpolation-filters="sRGB">
<feFlood flood-opacity="0" result="BackgroundImageFix"/>
<feBlend mode="normal" in="SourceGraphic" in2="BackgroundImageFix" result="shape"/>
<feGaussianBlur stdDeviation="5.55" result="effect1_foregroundBlur_187_83"/>
</filter>
</defs>
</svg>
