<svg width="31" height="31" viewBox="0 0 31 31" fill="none" xmlns="http://www.w3.org/2000/svg">
<path fill-rule="evenodd" clip-rule="evenodd" d="M15.5 3.1C8.65167 3.1 3.1 8.65167 3.1 15.5C3.1 22.3483 8.65167 27.9 15.5 27.9C22.3483 27.9 27.9 22.3483 27.9 15.5C27.9 8.65167 22.3483 3.1 15.5 3.1ZM0 15.5C0 6.93959 6.93959 0 15.5 0C24.0604 0 31 6.93959 31 15.5C31 24.0604 24.0604 31 15.5 31C6.93959 31 0 24.0604 0 15.5ZM15.5 6.2C16.356 6.2 17.05 6.89396 17.05 7.75V13.95H23.25C24.106 13.95 24.8 14.644 24.8 15.5C24.8 16.356 24.106 17.05 23.25 17.05H15.5C14.644 17.05 13.95 16.356 13.95 15.5V7.75C13.95 6.89396 14.644 6.2 15.5 6.2Z" fill="white"/>
</svg>
