<svg width="40" height="31" viewBox="0 0 40 31" fill="none" xmlns="http://www.w3.org/2000/svg">
<path fill-rule="evenodd" clip-rule="evenodd" d="M8.32335 1.66636e-06H31.6776C32.7318 -3.29788e-05 33.641 -6.30037e-05 34.3898 0.0592393C35.1804 0.121852 35.9662 0.260098 36.7228 0.633528C37.8496 1.18972 38.7701 2.07747 39.3465 3.17326C39.7319 3.90599 39.8744 4.66755 39.9389 5.43268C40.0001 6.15767 40 7.03759 40 8.05689V22.9441C40 23.9633 40.0001 24.8429 39.9389 25.5676C39.8743 26.3326 39.7317 27.0936 39.3465 27.8261C38.7707 28.9208 37.8507 29.8101 36.7228 30.3669C35.9666 30.7401 35.1811 30.8783 34.3914 30.9408C33.6433 31.0001 32.7354 31 31.6833 31H8.31679C7.26461 31 6.3563 31.0001 5.60793 30.9408C4.81812 30.8783 4.03199 30.7402 3.27562 30.3669C2.14551 29.8091 1.22863 28.9187 0.653965 27.8261C0.26842 27.0931 0.125759 26.3314 0.0611455 25.5655C-6.50361e-05 24.8399 -3.40426e-05 23.9589 1.72018e-06 22.9376V8.06325C-3.40426e-05 7.04185 -6.47977e-05 6.16057 0.0611384 5.43466C0.125724 4.66863 0.268316 3.90648 0.653965 3.17325C1.2292 2.07956 2.14664 1.19079 3.27562 0.633528C4.03249 0.259932 4.81923 0.121795 5.60997 0.0592279C6.3593 -6.27728e-05 7.26901 -3.29788e-05 8.32335 1.66636e-06ZM7.32205 3.8774L17.4205 11.2651C17.4225 11.2665 17.4244 11.2679 17.4263 11.2693C18.9019 12.3172 19.2189 12.5006 19.4983 12.5706C19.8268 12.6529 20.1727 12.6529 20.5011 12.5706C20.7816 12.5004 21.1009 12.3152 22.585 11.2612L22.9141 11.0169C23.1373 10.8512 23.461 10.6111 23.8631 10.3133C24.6672 9.7178 25.785 8.89131 27.04 7.96736C28.7942 6.67591 30.8221 5.18982 32.6372 3.87713C32.3323 3.87517 31.9897 3.875 31.6004 3.875H8.40039C7.99347 3.875 7.6374 3.87519 7.32205 3.8774ZM35.983 6.2952C33.9711 7.74129 31.5324 9.527 29.4603 11.0525C28.209 11.9737 27.0944 12.7979 26.2925 13.3918C25.8916 13.6887 25.569 13.9279 25.3467 14.0929L25.0041 14.3473L24.9679 14.3737C24.8879 14.4305 24.8086 14.487 24.73 14.543C23.612 15.3398 22.6298 16.0398 21.5028 16.3222C20.5174 16.5691 19.4821 16.5691 18.4967 16.3222C17.3703 16.04 16.39 15.3413 15.274 14.5459C15.1956 14.4901 15.1165 14.4337 15.0366 14.377C15.0207 14.3657 15.005 14.3541 14.9894 14.3424L4.01649 6.31495C4.00075 6.7828 4 7.36588 4 8.13788V22.8629C4 23.98 4.00156 24.7011 4.04785 25.2499C4.09223 25.776 4.16756 25.971 4.21799 26.0669C4.41031 26.4326 4.71638 26.729 5.09158 26.9142C5.19001 26.9628 5.39108 27.0357 5.93372 27.0787C6.4996 27.1235 7.24293 27.125 8.39382 27.125H31.6062C32.7571 27.125 33.5 27.1235 34.0654 27.0787C34.6073 27.0358 34.8082 26.9629 34.9068 26.9142C35.2842 26.728 35.5912 26.4305 35.7824 26.0669C35.8327 25.9713 35.9079 25.7768 35.9522 25.2518C35.9984 24.704 36 23.9844 36 22.8694V8.13152C36 7.35167 35.9992 6.765 35.983 6.2952Z" fill="white"/>
</svg>
