<svg width="26" height="34" viewBox="0 0 26 34" fill="none" xmlns="http://www.w3.org/2000/svg">
<path fill-rule="evenodd" clip-rule="evenodd" d="M13.0002 3.4437C10.4086 3.4437 7.92655 4.52292 6.09937 6.43771C4.27278 8.35189 3.25002 10.9434 3.25002 13.642C3.25002 17.3189 4.77363 20.7841 6.7745 23.7317C8.76717 26.6673 11.1382 28.9487 12.6047 30.221C12.7173 30.3187 12.8002 30.3905 12.8728 30.4511C12.9319 30.5004 12.972 30.532 13.0002 30.5529C13.0282 30.5322 13.0682 30.5008 13.1273 30.4515C13.1998 30.391 13.2828 30.3192 13.3956 30.2213C14.8621 28.949 17.2331 26.6677 19.2257 23.7322C21.2264 20.7847 22.75 17.3197 22.75 13.6427C22.75 10.944 21.7272 8.35158 19.9007 6.43752C18.0735 4.52274 15.5918 3.4437 13.0002 3.4437ZM3.814 3.98923C6.25329 1.43297 9.55808 0 13.0002 0C16.4423 0 19.7468 1.43277 22.1861 3.98904C24.6261 6.54603 26 10.0184 26 13.6427C26 18.3199 24.0751 22.4859 21.8641 25.743C19.645 29.0123 17.041 31.5094 15.4546 32.8857C15.4281 32.9088 15.4009 32.9325 15.3731 32.9568C15.0134 33.2713 14.5453 33.6806 13.8808 33.8788C13.339 34.0404 12.6606 34.0404 12.1188 33.8788C11.4553 33.6808 10.9851 33.2696 10.6283 32.9575C10.6001 32.9328 10.5726 32.9088 10.5458 32.8855C8.95931 31.5091 6.35527 29.0119 4.13606 25.7425C1.92504 22.4852 0 18.3191 0 13.642C0 10.0175 1.37412 6.5461 3.814 3.98923ZM13.0001 10.3311C12.1026 10.3311 11.3751 11.102 11.3751 12.0529C11.3751 13.0039 12.1026 13.7748 13.0001 13.7748C13.8975 13.7748 14.6251 13.0039 14.6251 12.0529C14.6251 11.102 13.8975 10.3311 13.0001 10.3311ZM8.12504 12.0529C8.12504 9.20009 10.3077 6.88739 13.0001 6.88739C15.6925 6.88739 17.8751 9.20009 17.8751 12.0529C17.8751 14.9058 15.6925 17.2185 13.0001 17.2185C10.3077 17.2185 8.12504 14.9058 8.12504 12.0529Z" fill="white"/>
</svg>
